<svg width="24" height="24" viewBox="0 0 24 24" fill="none" xmlns="http://www.w3.org/2000/svg">
<path d="M10.1416 11.2627C10.051 11.491 10 11.7394 10 12C10 13.1046 10.8954 14 12 14C12.2604 14 12.5082 13.9479 12.7363 13.8574L14.2109 15.332C13.5774 15.7532 12.8178 16 12 16C9.79086 16 8 14.2091 8 12C8 11.1821 8.24569 10.4217 8.66699 9.78809L10.1416 11.2627ZM12 8C14.2091 8 16 9.79086 16 12C16 12.2736 15.9722 12.5407 15.9199 12.7988L11.2002 8.0791C11.4586 8.02668 11.7262 8 12 8Z" fill="#FFFFFF" stroke="#FFFFFF" stroke-width="1"/>
<path d="M7.5752 8.69531C6.29509 9.63256 5.25045 10.7623 4.58496 11.5703C4.48528 11.6913 4.41033 11.7817 4.34863 11.8613C4.30017 11.9239 4.27031 11.9686 4.25 12C4.27031 12.0314 4.30017 12.0761 4.34863 12.1387C4.41033 12.2183 4.48528 12.3087 4.58496 12.4297C5.26516 13.2555 6.34119 14.4182 7.66016 15.3672C8.98714 16.3219 10.4752 17 12.001 17C13.0485 17 14.0778 16.6793 15.0498 16.1699L16.5186 17.6387C15.2055 18.4171 13.6708 18.9999 12.001 19C9.89116 19 7.99519 18.0725 6.49219 16.9912C4.98131 15.9042 3.78089 14.5994 3.04102 13.7012C2.74492 13.3417 2.29166 12.8546 2.23633 12.1445L2.23047 12L2.23633 11.8555C2.29166 11.1454 2.74492 10.6583 3.04102 10.2988C3.72342 9.47032 4.79732 8.29591 6.14551 7.26562L7.5752 8.69531ZM12.001 5C14.1108 5.00007 16.0068 5.92749 17.5098 7.00879C19.0206 8.09582 20.2211 9.40058 20.9609 10.2988C21.2767 10.6822 21.7715 11.2108 21.7715 12C21.7715 12.7892 21.2767 13.3178 20.9609 13.7012C20.4743 14.2921 19.7859 15.0563 18.9434 15.8213L17.5273 14.4053C18.3073 13.7056 18.9547 12.991 19.417 12.4297C19.5167 12.3087 19.5916 12.2183 19.6533 12.1387C19.7016 12.0764 19.7307 12.0314 19.751 12C19.7307 11.9686 19.7016 11.9236 19.6533 11.8613C19.5916 11.7817 19.5167 11.6913 19.417 11.5703C18.7368 10.7445 17.6608 9.58182 16.3418 8.63281C15.0148 7.67813 13.5267 7.00007 12.001 7C11.4502 7 10.9043 7.08922 10.3691 7.24707L8.80762 5.68555C9.7914 5.26876 10.8653 5 12.001 5Z" fill="#FFFFFF" stroke="#FFFFFF" stroke-width="1"/>
<path d="M5 2L21 18" stroke="#FFFFFF" stroke-width="2"/>
</svg>
